
The Legend of Awesomest Maximus 2011 NTSC DVDR-FiCODVDR

[Plot]


From the director of Revenge Of The Nerds comes this outrageous sword and sandals spoof that's got more laughs than Gladiator, hotter bods than Troy and an army of 301! Horny King Looney of Troy (Rip Torn, Men In Black) sends slacker general Awesomest Maximus (Will Sasso, The Three Stooges) to maintain peace with rival King Erotic of Greece. But when Prince Orlando who's more into fashion than fighting, steals the King's wife Ellen (Sophie Monk, Date Movie) to be his BFF, it's war! Will Awesomest live up to his godly destiny? Can he defeat the mighty warrior Testiclees (Ian Ziering Beverly Hills 90210)? Can he light a fire under his gold-digging wife Hotessa (Kristanna Loken, Terminator 3: Rise Of The Machines)? Join the ultimate toga party for this savagely funny farce that takes comedy to the Maximus.


Source: Bluray
Video: 720x400 @bitrate 1700 2pass
Audio: English AC3 5.1 @384
Sample: Included 
http://www.imdb.com/title/tt1059887/

General
Format: AVI
Format/Info: Audio Video Interleave
File size: 1.33 GiB
Duration: 1h 30mn
Overall bit rate: 2 092 Kbps

Video
Format: MPEG-4 Visual
Codec ID: XVID
Duration: 1h 30mn
Bit rate: 1 699 Kbps
Width: 720 pixels
Height: 400 pixels
Display aspect ratio: 16:9
Frame rate: 23.976 fps
Chroma subsampling: 4:2:0
Bit depth: 8 bits
Bits/(Pixel*Frame): 0.246
Stream size: 1.08 GiB (81%)
Writing library: XviD 1.2.1 (UTC 2008-12-04)

Audio
Format: AC-3
Format/Info: Audio Coding 3
Codec ID: 2000
Duration: 1h 30mn
Bit rate mode: Constant
Bit rate: 384 Kbps
Channel(s): 6 channels
Channel positions: Front: L C R, Side: L R, LFE
Bit depth: 16 bits
Delay relative to video: 26ms
Stream size: 250 MiB (18%)
Interleave, duration: 42 ms (1.00 video frame)


[screens]
 
http://img856.imageshack.us/img856/4619/lelellelelleelee.png 
http://img38.imageshack.us/img38/9995/lelellelelleee.png 
http://img52.imageshack.us/img52/6460/lelellelelee.png 
http://img828.imageshack.us/img828/1582/lelellelee.png  
http://img560.imageshack.us/img560/3153/lelellee.png 
http://img696.imageshack.us/img696/2461/leleleu.png 
http://img39.imageshack.us/img39/8946/lelex.png 
http://img820.imageshack.us/img820/8236/49631492.png 
http://img820.imageshack.us/img820/2955/lelellelelelleleelee.png 
http://img607.imageshack.us/img607/327/lelellelelleleelee.png  
http://img189.imageshack.us/img189/4092/lelellelelelleleelelee.png


[trailer]

video: you + tube
./w.a.t.c..c.h.?.v.=.
rNUlHjyUVaM

...http://www .... y.o.u. .t.u.b.e. ./w.a.t.c..c.h.?.v.=.. . rNUlHjyUVaM...


Enjoy :) 